<?xml version="1.0" standalone="no"?>
<!DOCTYPE svg PUBLIC "-//W3C//DTD SVG 20010904//EN"
 "http://www.w3.org/TR/2001/REC-SVG-20010904/DTD/svg10.dtd">
<svg version="1.0" xmlns="http://www.w3.org/2000/svg"
 width="506.000000pt" height="506.000000pt" viewBox="0 0 506.000000 506.000000"
 preserveAspectRatio="xMidYMid meet">
<metadata>
Created by potrace 1.11, written by Peter Selinger 2001-2013
</metadata>
<g transform="translate(0.000000,506.000000) scale(0.100000,-0.100000)"
fill="#000000" stroke="none">
<path d="M3043 4684 c-28 -14 -68 -43 -87 -65 -25 -27 -332 -632 -1004 -1974
l-967 -1935 1 -78 c0 -63 5 -86 26 -128 40 -76 114 -134 192 -150 12 -3 610
-5 1329 -5 1481 0 1367 -6 1457 81 61 60 82 106 85 195 2 58 -1 80 -22 123
-30 63 -79 113 -141 144 l-47 23 -1063 1 c-585 1 -1065 4 -1067 6 -3 2 381
775 852 1717 l856 1713 0 71 c0 115 -59 213 -160 263 -61 30 -175 29 -240 -2z"/>
</g>
</svg>
